<svg width="218" height="42" xmlns="http://www.w3.org/2000/svg" aria-hidden="true" class="h-[22px] w-[114px] fill-current text-default md:h-[28.5px] md:w-[151px]" viewBox="0 0 218 42"><g fill="none" fill-rule="evenodd"><path d="M11.842 21L1.621 10.094a5.981 5.981 0 01.267-8.455l.026-.025a6.044 6.044 0 018.516.291l14.058 15.002a5.983 5.983 0 010 8.187l-14.058 15a6.044 6.044 0 01-8.516.292 5.981 5.981 0 01-.293-8.48L11.842 21z" fill="#23E6A8"></path><path d="M29.59 21l10.223-10.906a5.982 5.982 0 00-.268-8.455l-.026-.025a6.044 6.044 0 00-8.517.291L16.945 16.907a5.982 5.982 0 000 8.187l14.057 15a6.044 6.044 0 008.517.292 5.981 5.981 0 00.317-8.453l-.023-.027L29.59 21z" fill-opacity="0.4" fill="#23E6A8"></path><path d="M197.703 16.509c0 .56.372 1.016 1.118 1.368.744.35 1.65.66 2.718.925 1.088.273 2.158.61 3.205 1.01 1.069.408 1.974 1.087 2.72 2.042.744.954 1.117 2.146 1.117 3.577 0 2.16-.808 3.823-2.424 4.988-1.617 1.164-3.633 1.746-6.05 1.746-4.33 0-7.28-1.668-8.854-5.008l4.722-2.652c.617 1.824 1.995 2.736 4.132 2.736 1.94 0 2.91-.603 2.91-1.81 0-.561-.374-1.017-1.119-1.368-.745-.35-1.651-.666-2.719-.947a28.279 28.279 0 01-3.205-1.052 6.565 6.565 0 01-2.718-2c-.746-.91-1.118-2.054-1.118-3.43 0-2.076.766-3.71 2.297-4.902 1.533-1.194 3.437-1.79 5.714-1.79 1.714 0 3.275.386 4.68 1.158 1.405.772 2.515 1.873 3.33 3.304l-4.638 2.525c-.674-1.431-1.799-2.146-3.372-2.146-.703 0-1.286.154-1.75.462-.464.309-.696.73-.696 1.264zm-23.864 8.837c1.097 1.096 2.488 1.643 4.174 1.643 1.688 0 3.085-.555 4.196-1.663 1.11-1.108 1.664-2.532 1.664-4.272 0-1.74-.554-3.164-1.664-4.273-1.11-1.108-2.509-1.662-4.196-1.662-1.686 0-3.077.554-4.174 1.663-1.096 1.108-1.644 2.532-1.644 4.272 0 1.74.548 3.17 1.644 4.292zm5.186-15.403c2.84 0 5.264 1.072 7.273 3.22 2.01 2.146 3.015 4.777 3.015 7.891 0 3.115-1.005 5.745-3.015 7.892-2.009 2.146-4.434 3.22-7.273 3.22-2.951 0-5.227-1.025-6.83-3.073v2.484h-5.439V2.114h5.439v10.9c1.602-2.048 3.88-3.071 6.83-3.071zM146.35 25.346c1.096 1.096 2.487 1.643 4.174 1.643 1.686 0 3.084-.555 4.194-1.663 1.111-1.108 1.666-2.532 1.666-4.272 0-1.74-.555-3.164-1.665-4.273-1.11-1.108-2.509-1.662-4.195-1.662-1.687 0-3.078.554-4.174 1.663-1.096 1.108-1.645 2.532-1.645 4.272 0 1.74.549 3.17 1.645 4.292zm10.034-14.814h5.44v21.045h-5.44v-2.484c-1.63 2.048-3.921 3.072-6.872 3.072-2.812 0-5.221-1.073-7.23-3.22-2.011-2.146-3.016-4.776-3.016-7.89 0-3.115 1.005-5.746 3.015-7.893 2.009-2.146 4.42-3.22 7.23-3.22 2.952 0 5.243 1.024 6.873 3.073v-2.483zM129.95 31.576h5.438V.851h-5.438v30.725zm-8.39-21.044h5.818l-7.673 21.045c-1.098 3.03-2.551 5.226-4.365 6.586-1.812 1.36-4.068 1.971-6.767 1.83v-5.05c1.462.028 2.621-.281 3.478-.925.857-.646 1.54-1.684 2.046-3.116l-8.644-20.37h5.946l5.48 14.142 4.68-14.142zm-16.444 21.045h-6.283l-4.552-6.399-4.596 6.399H83.4l7.716-10.733-7.378-10.312h6.282l4.259 5.935 4.258-5.935h6.24L97.399 20.8l7.716 10.776zm-37.06-6.356c1.096 1.093 2.46 1.641 4.09 1.641s2.993-.548 4.09-1.641c1.096-1.094 1.644-2.483 1.644-4.167 0-1.683-.548-3.072-1.645-4.167-1.096-1.094-2.46-1.642-4.09-1.642s-2.986.548-4.068 1.642c-1.083 1.095-1.623 2.484-1.623 4.167 0 1.684.534 3.073 1.602 4.166v.001zm12.016 3.746c-2.165 2.132-4.806 3.198-7.927 3.198-3.12 0-5.755-1.073-7.905-3.22-2.15-2.146-3.225-4.776-3.225-7.89 0-3.115 1.075-5.746 3.225-7.893 2.15-2.147 4.785-3.22 7.905-3.22s5.762 1.073 7.927 3.22c2.165 2.147 3.246 4.778 3.246 7.892 0 3.115-1.081 5.752-3.246 7.912zM213.95 13.377h-.49v-.927h.49c.6 0 .6.342.6.455 0 .116 0 .472-.6.472m1.26-.473c0-.687-.483-1.114-1.26-1.114h-1.149v3.115h.66v-.868h.49c.03 0 .06 0 .091-.002l.635.87h.817l-.774-1.06c.316-.198.49-.53.49-.94m-1.238 2.91a2.47 2.47 0 01-2.467-2.468 2.47 2.47 0 012.467-2.467 2.47 2.47 0 012.469 2.467 2.47 2.47 0 01-2.469 2.469m0-5.874a3.409 3.409 0 00-3.404 3.405 3.409 3.409 0 003.404 3.406 3.409 3.409 0 003.406-3.406 3.41 3.41 0 00-3.406-3.405" fill="currentColor"></path></g></svg>
<svg width="218" height="42" xmlns="http://www.w3.org/2000/svg" aria-hidden="true" class="h-[22px] w-[114px] fill-current text-default md:h-[28.5px] md:w-[151px]" viewBox="0 0 218 42"><g fill="none" fill-rule="evenodd"><path d="M11.842 21L1.621 10.094a5.981 5.981 0 01.267-8.455l.026-.025a6.044 6.044 0 018.516.291l14.058 15.002a5.983 5.983 0 010 8.187l-14.058 15a6.044 6.044 0 01-8.516.292 5.981 5.981 0 01-.293-8.48L11.842 21z" fill="#23E6A8"></path><path d="M29.59 21l10.223-10.906a5.982 5.982 0 00-.268-8.455l-.026-.025a6.044 6.044 0 00-8.517.291L16.945 16.907a5.982 5.982 0 000 8.187l14.057 15a6.044 6.044 0 008.517.292 5.981 5.981 0 00.317-8.453l-.023-.027L29.59 21z" fill-opacity="0.4" fill="#23E6A8"></path><path d="M197.703 16.509c0 .56.372 1.016 1.118 1.368.744.35 1.65.66 2.718.925 1.088.273 2.158.61 3.205 1.01 1.069.408 1.974 1.087 2.72 2.042.744.954 1.117 2.146 1.117 3.577 0 2.16-.808 3.823-2.424 4.988-1.617 1.164-3.633 1.746-6.05 1.746-4.33 0-7.28-1.668-8.854-5.008l4.722-2.652c.617 1.824 1.995 2.736 4.132 2.736 1.94 0 2.91-.603 2.91-1.81 0-.561-.374-1.017-1.119-1.368-.745-.35-1.651-.666-2.719-.947a28.279 28.279 0 01-3.205-1.052 6.565 6.565 0 01-2.718-2c-.746-.91-1.118-2.054-1.118-3.43 0-2.076.766-3.71 2.297-4.902 1.533-1.194 3.437-1.79 5.714-1.79 1.714 0 3.275.386 4.68 1.158 1.405.772 2.515 1.873 3.33 3.304l-4.638 2.525c-.674-1.431-1.799-2.146-3.372-2.146-.703 0-1.286.154-1.75.462-.464.309-.696.73-.696 1.264zm-23.864 8.837c1.097 1.096 2.488 1.643 4.174 1.643 1.688 0 3.085-.555 4.196-1.663 1.11-1.108 1.664-2.532 1.664-4.272 0-1.74-.554-3.164-1.664-4.273-1.11-1.108-2.509-1.662-4.196-1.662-1.686 0-3.077.554-4.174 1.663-1.096 1.108-1.644 2.532-1.644 4.272 0 1.74.548 3.17 1.644 4.292zm5.186-15.403c2.84 0 5.264 1.072 7.273 3.22 2.01 2.146 3.015 4.777 3.015 7.891 0 3.115-1.005 5.745-3.015 7.892-2.009 2.146-4.434 3.22-7.273 3.22-2.951 0-5.227-1.025-6.83-3.073v2.484h-5.439V2.114h5.439v10.9c1.602-2.048 3.88-3.071 6.83-3.071zM146.35 25.346c1.096 1.096 2.487 1.643 4.174 1.643 1.686 0 3.084-.555 4.194-1.663 1.111-1.108 1.666-2.532 1.666-4.272 0-1.74-.555-3.164-1.665-4.273-1.11-1.108-2.509-1.662-4.195-1.662-1.687 0-3.078.554-4.174 1.663-1.096 1.108-1.645 2.532-1.645 4.272 0 1.74.549 3.17 1.645 4.292zm10.034-14.814h5.44v21.045h-5.44v-2.484c-1.63 2.048-3.921 3.072-6.872 3.072-2.812 0-5.221-1.073-7.23-3.22-2.011-2.146-3.016-4.776-3.016-7.89 0-3.115 1.005-5.746 3.015-7.893 2.009-2.146 4.42-3.22 7.23-3.22 2.952 0 5.243 1.024 6.873 3.073v-2.483zM129.95 31.576h5.438V.851h-5.438v30.725zm-8.39-21.044h5.818l-7.673 21.045c-1.098 3.03-2.551 5.226-4.365 6.586-1.812 1.36-4.068 1.971-6.767 1.83v-5.05c1.462.028 2.621-.281 3.478-.925.857-.646 1.54-1.684 2.046-3.116l-8.644-20.37h5.946l5.48 14.142 4.68-14.142zm-16.444 21.045h-6.283l-4.552-6.399-4.596 6.399H83.4l7.716-10.733-7.378-10.312h6.282l4.259 5.935 4.258-5.935h6.24L97.399 20.8l7.716 10.776zm-37.06-6.356c1.096 1.093 2.46 1.641 4.09 1.641s2.993-.548 4.09-1.641c1.096-1.094 1.644-2.483 1.644-4.167 0-1.683-.548-3.072-1.645-4.167-1.096-1.094-2.46-1.642-4.09-1.642s-2.986.548-4.068 1.642c-1.083 1.095-1.623 2.484-1.623 4.167 0 1.684.534 3.073 1.602 4.166v.001zm12.016 3.746c-2.165 2.132-4.806 3.198-7.927 3.198-3.12 0-5.755-1.073-7.905-3.22-2.15-2.146-3.225-4.776-3.225-7.89 0-3.115 1.075-5.746 3.225-7.893 2.15-2.147 4.785-3.22 7.905-3.22s5.762 1.073 7.927 3.22c2.165 2.147 3.246 4.778 3.246 7.892 0 3.115-1.081 5.752-3.246 7.912zM213.95 13.377h-.49v-.927h.49c.6 0 .6.342.6.455 0 .116 0 .472-.6.472m1.26-.473c0-.687-.483-1.114-1.26-1.114h-1.149v3.115h.66v-.868h.49c.03 0 .06 0 .091-.002l.635.87h.817l-.774-1.06c.316-.198.49-.53.49-.94m-1.238 2.91a2.47 2.47 0 01-2.467-2.468 2.47 2.47 0 012.467-2.467 2.47 2.47 0 012.469 2.467 2.47 2.47 0 01-2.469 2.469m0-5.874a3.409 3.409 0 00-3.404 3.405 3.409 3.409 0 003.404 3.406 3.409 3.409 0 003.406-3.406 3.41 3.41 0 00-3.406-3.405" fill="currentColor"></path></g></svg>
